<?xml version="1.0" encoding="UTF-8" standalone="no"?>
<!DOCTYPE svg PUBLIC "-//W3C//DTD SVG 1.1//EN" "http://www.w3.org/Graphics/SVG/1.1/DTD/svg11.dtd">
<svg width="100%" height="100%" viewBox="0 0 284 50" version="1.1" xmlns="http://www.w3.org/2000/svg" xmlns:xlink="http://www.w3.org/1999/xlink" xml:space="preserve" xmlns:serif="http://www.serif.com/" style="fill-rule:evenodd;clip-rule:evenodd;stroke-linejoin:round;stroke-miterlimit:2;">
    <g transform="matrix(1,0,0,1,-141.732,-258.453)">
        <path d="M342.169,301.875C342.169,298.194 344.826,295.363 348.895,295.363C352.942,295.363 355.621,298.194 355.621,301.875C355.621,305.557 352.942,308.388 348.895,308.388C344.826,308.388 342.169,305.557 342.169,301.875ZM310.047,308.162L308.676,305.066L301.347,305.066L299.977,308.162L298.606,308.162L304.275,295.57L305.749,295.57L311.417,308.162L310.047,308.162ZM392.642,308.162L391.272,305.066L383.943,305.066L382.572,308.162L381.203,308.162L386.87,295.57L388.345,295.57L394.013,308.162L392.642,308.162ZM201.953,308.162L203.137,308.162L203.137,295.57L201.953,295.57L201.953,308.162ZM333.281,308.162L334.464,308.162L334.464,295.57L333.281,295.57L333.281,308.162ZM290.632,308.162L281.913,297.345L281.913,308.162L280.729,308.162L280.729,295.57L281.934,295.57L290.611,306.236L290.611,295.57L291.795,295.57L291.795,308.162L290.632,308.162ZM320.324,308.162L320.324,296.552L315.798,296.552L315.798,295.57L326.054,295.57L326.054,296.552L321.528,296.552L321.528,308.162L320.324,308.162ZM234.178,308.162L234.178,296.552L229.651,296.552L229.651,295.57L239.908,295.57L239.908,296.552L235.382,296.552L235.382,308.162L234.178,308.162ZM373.229,308.162L364.509,297.345L364.509,308.162L363.326,308.162L363.326,295.57L364.529,295.57L373.208,306.236L373.208,295.57L374.391,295.57L374.391,308.162L373.229,308.162ZM221.262,308.162L212.543,297.345L212.543,308.162L211.359,308.162L211.359,295.57L212.563,295.57L221.241,306.236L221.241,295.57L222.425,295.57L222.425,308.162L221.262,308.162ZM400.533,308.162L400.533,295.57L401.738,295.57L401.738,307.18L408.444,307.18L408.444,308.162L400.533,308.162ZM247.134,308.162L247.134,295.57L255.916,295.57L255.916,296.552L248.318,296.552L248.318,301.214L255.771,301.214L255.771,302.197L248.318,302.197L248.318,307.18L255.916,307.18L255.916,308.162L247.134,308.162ZM271.738,308.162L267.856,302.952L264.803,302.952L264.803,308.162L263.619,308.162L263.619,295.57L268.79,295.57C271.177,295.57 273.004,296.948 273.004,299.251C273.004,301.537 271.24,302.801 269.163,302.875L273.17,308.162L271.738,308.162ZM354.375,301.875C354.375,298.686 352.216,296.344 348.895,296.344C345.553,296.344 343.414,298.686 343.414,301.875C343.414,305.047 345.553,307.407 348.895,307.407C352.216,307.407 354.375,305.047 354.375,301.875ZM387.618,296.721L384.337,304.084L390.877,304.084L387.618,296.721ZM305.022,296.721L301.741,304.084L308.281,304.084L305.022,296.721ZM271.759,299.251C271.759,297.665 270.533,296.552 268.686,296.552L264.803,296.552L264.803,301.97L268.686,301.97C270.533,301.97 271.759,300.837 271.759,299.251ZM342.992,287.946L341.194,282.989L328.648,282.989L326.806,287.946L319.699,287.946L331.016,258.689L338.825,258.689L350.097,287.946L342.992,287.946ZM253.629,287.946L251.831,282.989L239.285,282.989L237.444,287.946L230.337,287.946L241.654,258.689L249.462,258.689L260.735,287.946L253.629,287.946ZM402.171,287.946L402.171,275.663L388.355,275.663L388.355,287.946L382.126,287.946L382.126,258.688L388.355,258.688L388.355,270.181L402.171,270.181L402.171,258.688L408.444,258.688L408.444,287.946L402.171,287.946ZM271.968,287.946L271.968,275.97L260.695,258.688L267.801,258.688L275.083,270.444L282.276,258.688L289.382,258.688L278.197,275.97L278.197,287.946L271.968,287.946ZM360.058,287.946L360.058,264.171L351.504,264.171L351.504,258.688L374.841,258.688L374.841,264.171L366.331,264.171L366.331,287.946L360.058,287.946ZM295.395,287.946L295.395,258.688L309.081,258.688C315.441,258.688 318.907,262.987 318.907,268.118C318.907,273.207 315.398,277.549 309.081,277.549L301.624,277.549L301.624,287.946L295.395,287.946ZM218.49,287.946L212.744,277.549L208.182,277.549L208.182,287.946L201.953,287.946L201.953,258.688L215.64,258.688C221.737,258.688 225.465,262.68 225.465,268.118C225.465,273.295 222.219,276.059 219.061,276.805L225.641,287.946L218.49,287.946ZM334.921,264.917L330.359,277.505L339.482,277.505L334.921,264.917ZM245.558,264.917L240.997,277.505L250.12,277.505L245.558,264.917ZM312.546,268.118C312.546,265.663 310.704,264.171 308.247,264.171L301.624,264.171L301.624,272.067L308.247,272.067C310.704,272.067 312.546,270.532 312.546,268.118ZM219.104,268.118C219.104,265.663 217.219,264.171 214.718,264.171L208.182,264.171L208.182,272.067L214.718,272.067C217.219,272.067 219.104,270.576 219.104,268.118ZM425.087,265.377C424.585,267.831 422.414,269.677 419.812,269.677C416.837,269.677 414.426,267.266 414.426,264.291C414.426,261.318 416.837,258.907 419.812,258.907C422.786,258.907 425.197,261.318 425.197,264.291L425.169,264.842L425.087,265.377ZM424.789,263.267L424.866,263.772L424.892,264.291C424.892,265.695 424.324,266.964 423.404,267.885C422.485,268.804 421.215,269.373 419.812,269.373C418.408,269.373 417.139,268.804 416.219,267.885C415.299,266.964 414.731,265.695 414.731,264.291C414.731,262.888 415.298,261.619 416.219,260.699C417.139,259.779 418.408,259.211 419.812,259.211C421.215,259.211 422.485,259.779 423.404,260.699C424.094,261.389 424.586,262.275 424.789,263.267ZM421.898,267.428L419.892,264.739L418.315,264.739L418.315,267.428L417.703,267.428L417.703,260.93L420.375,260.93C421.609,260.93 422.553,261.64 422.553,262.829C422.553,264.008 421.641,264.661 420.567,264.699L422.638,267.428L421.898,267.428ZM421.909,262.829C421.909,262.011 421.276,261.436 420.321,261.436L418.315,261.436L418.315,264.232L420.321,264.232C421.276,264.232 421.909,263.648 421.909,262.829Z"/>
    </g>
    <g transform="matrix(-0.037389,-23.9444,-23.9444,0.037389,38.252,49.861)">
        <path d="M1,-0.001L1,0.5L0.5,0.5C0.431,0.5 0.365,0.486 0.305,0.461C0.215,0.423 0.139,0.359 0.085,0.28C0.059,0.24 0.037,0.196 0.023,0.149C0.008,0.102 0,0.052 0,0C-0,-0.069 0.014,-0.135 0.039,-0.195C0.077,-0.284 0.141,-0.361 0.22,-0.415C0.26,-0.441 0.304,-0.463 0.351,-0.477C0.398,-0.492 0.448,-0.5 0.5,-0.5C0.569,-0.5 0.635,-0.486 0.695,-0.461C0.784,-0.423 0.861,-0.359 0.915,-0.28C0.942,-0.24 0.963,-0.196 0.977,-0.149C0.992,-0.102 1,-0.052 1,-0.001ZM0.183,0.101C0.192,0.131 0.206,0.16 0.224,0.187C0.26,0.24 0.311,0.282 0.37,0.307C0.41,0.324 0.454,0.333 0.498,0.333L0.829,0.333L0.829,0.002L0.914,0.002L0.914,0.001L0.829,0.002C0.829,-0.032 0.824,-0.065 0.814,-0.096C0.805,-0.127 0.791,-0.156 0.773,-0.183C0.737,-0.236 0.686,-0.277 0.627,-0.303C0.586,-0.32 0.543,-0.328 0.498,-0.328C0.465,-0.328 0.432,-0.323 0.4,-0.314C0.369,-0.304 0.34,-0.29 0.314,-0.272C0.26,-0.236 0.219,-0.186 0.194,-0.126C0.176,-0.086 0.168,-0.043 0.168,0.003C0.168,0.036 0.173,0.069 0.183,0.101Z" style="fill:url(#_Linear1);fill-rule:nonzero;"/>
    </g>
    <g transform="matrix(-0.037389,-23.9444,-23.9444,0.037389,12.0104,49.902)">
        <path d="M1,0.024C1,0.09 0.987,0.152 0.963,0.209C0.926,0.295 0.866,0.367 0.79,0.419C0.752,0.444 0.71,0.465 0.666,0.479C0.621,0.493 0.573,0.5 0.524,0.5L-0,0.5L0,0.408L0,-0.024C-0,-0.09 0.013,-0.152 0.037,-0.209C0.074,-0.295 0.134,-0.367 0.21,-0.419C0.248,-0.444 0.29,-0.465 0.334,-0.479C0.379,-0.493 0.427,-0.5 0.476,-0.5L1,-0.5L1,0.024ZM0.524,0.316C0.565,0.316 0.603,0.308 0.638,0.293C0.69,0.271 0.735,0.234 0.766,0.187C0.782,0.164 0.795,0.138 0.803,0.111C0.812,0.084 0.816,0.055 0.816,0.024L0.816,-0.316L0.476,-0.316C0.435,-0.316 0.397,-0.308 0.362,-0.293C0.31,-0.271 0.265,-0.234 0.234,-0.187C0.218,-0.164 0.205,-0.138 0.197,-0.111C0.188,-0.084 0.184,-0.055 0.184,-0.024L0.184,0.316L0.524,0.316Z" style="fill:url(#_Linear2);fill-rule:nonzero;"/>
    </g>
    <g transform="matrix(0.037389,23.9444,23.9444,-0.037389,38.1736,0.0190006)">
        <path d="M0,0.408L0,-0.024C-0,-0.09 0.013,-0.152 0.037,-0.209C0.074,-0.295 0.134,-0.367 0.21,-0.419C0.248,-0.444 0.29,-0.465 0.334,-0.479C0.379,-0.493 0.427,-0.5 0.476,-0.5L1,-0.5L1,0.024C1,0.09 0.987,0.152 0.963,0.209C0.926,0.295 0.866,0.367 0.79,0.419C0.752,0.444 0.71,0.465 0.666,0.479C0.621,0.493 0.573,0.5 0.524,0.5L-0,0.5L0,0.408ZM0.476,-0.316C0.435,-0.316 0.397,-0.308 0.362,-0.293C0.31,-0.271 0.265,-0.234 0.234,-0.187C0.218,-0.164 0.205,-0.138 0.197,-0.111C0.188,-0.084 0.184,-0.055 0.184,-0.024L0.184,0.316L0.524,0.316C0.565,0.316 0.603,0.308 0.638,0.293C0.69,0.271 0.735,0.234 0.766,0.187C0.782,0.164 0.795,0.138 0.803,0.111C0.812,0.084 0.816,0.055 0.816,0.024L0.816,-0.316L0.476,-0.316Z" style="fill:url(#_Linear3);fill-rule:nonzero;"/>
    </g>
    <g transform="matrix(23.9444,-0.037389,-0.037389,-23.9444,0.0189977,12.0086)">
        <path d="M0.525,0.5L-0,0.5L0,0.408L0,-0.024C0,-0.09 0.013,-0.152 0.037,-0.209C0.074,-0.295 0.134,-0.367 0.21,-0.419C0.248,-0.444 0.29,-0.465 0.334,-0.479C0.379,-0.493 0.427,-0.5 0.476,-0.5L1,-0.5L1,0.024C1,0.09 0.987,0.152 0.963,0.209C0.926,0.295 0.866,0.367 0.79,0.419C0.752,0.444 0.71,0.465 0.666,0.479C0.621,0.492 0.574,0.5 0.525,0.5ZM0.362,-0.293C0.31,-0.271 0.265,-0.234 0.234,-0.187C0.218,-0.164 0.205,-0.138 0.197,-0.111C0.188,-0.084 0.184,-0.055 0.184,-0.024L0.184,0.316L0.524,0.316C0.565,0.316 0.603,0.308 0.638,0.293C0.69,0.271 0.735,0.234 0.766,0.187C0.782,0.164 0.795,0.138 0.803,0.111C0.812,0.084 0.816,0.055 0.816,0.024L0.816,-0.316L0.475,-0.316C0.435,-0.316 0.397,-0.308 0.362,-0.293Z" style="fill:url(#_Linear4);fill-rule:nonzero;"/>
    </g>
    <defs>
        <linearGradient id="_Linear1" x1="0" y1="0" x2="1" y2="0" gradientUnits="userSpaceOnUse" gradientTransform="matrix(1,2.1684e-19,2.1684e-19,-1,0,4.01644e-05)"><stop offset="0" style="stop-color:rgb(69,92,166);stop-opacity:1"/><stop offset="0.27" style="stop-color:rgb(69,92,166);stop-opacity:1"/><stop offset="1" style="stop-color:rgb(80,140,201);stop-opacity:1"/></linearGradient>
        <linearGradient id="_Linear2" x1="0" y1="0" x2="1" y2="0" gradientUnits="userSpaceOnUse" gradientTransform="matrix(1,2.1684e-19,2.1684e-19,-1,0,1.63503e-05)"><stop offset="0" style="stop-color:rgb(64,170,72);stop-opacity:1"/><stop offset="0.27" style="stop-color:rgb(64,170,72);stop-opacity:1"/><stop offset="1" style="stop-color:rgb(25,124,62);stop-opacity:1"/></linearGradient>
        <linearGradient id="_Linear3" x1="0" y1="0" x2="1" y2="0" gradientUnits="userSpaceOnUse" gradientTransform="matrix(1,2.1684e-19,2.1684e-19,-1,0,1.62198e-05)"><stop offset="0" style="stop-color:rgb(64,170,72);stop-opacity:1"/><stop offset="0.27" style="stop-color:rgb(64,170,72);stop-opacity:1"/><stop offset="1" style="stop-color:rgb(25,124,62);stop-opacity:1"/></linearGradient>
        <linearGradient id="_Linear4" x1="0" y1="0" x2="1" y2="0" gradientUnits="userSpaceOnUse" gradientTransform="matrix(1,2.1684e-19,2.1684e-19,-1,0,-6.03403e-05)"><stop offset="0" style="stop-color:rgb(64,170,72);stop-opacity:1"/><stop offset="0.27" style="stop-color:rgb(64,170,72);stop-opacity:1"/><stop offset="1" style="stop-color:rgb(25,124,62);stop-opacity:1"/></linearGradient>
    </defs>
</svg>
